<?xml version="1.0" standalone="no"?>
<!DOCTYPE svg PUBLIC "-//W3C//DTD SVG 20010904//EN"
 "http://www.w3.org/TR/2001/REC-SVG-20010904/DTD/svg10.dtd">
<svg version="1.0" xmlns="http://www.w3.org/2000/svg"
 width="460.000000pt" height="460.000000pt" viewBox="0 0 460.000000 460.000000"
 preserveAspectRatio="xMidYMid meet">
<metadata>
Created by potrace 1.14, written by Peter Selinger 2001-2017
</metadata>
<g transform="translate(0.000000,460.000000) scale(0.100000,-0.100000)"
fill="#000000" stroke="none">
<path d="M4529 4536 c-5 -5 -108 -14 -229 -21 -114 -7 -205 -14 -240 -20 -34
-5 -137 -14 -235 -20 -99 -6 -212 -15 -245 -20 -14 -2 -74 -7 -133 -10 -108
-6 -153 -10 -237 -20 -25 -2 -92 -7 -150 -10 -58 -4 -121 -8 -140 -10 -19 -2
-66 -7 -105 -11 -38 -3 -78 -8 -87 -10 -9 -1 -68 -5 -130 -9 -62 -3 -133 -8
-158 -11 -74 -8 -129 -13 -235 -18 -55 -4 -120 -8 -145 -11 -25 -3 -67 -7 -95
-10 -27 -2 -68 -6 -90 -9 -22 -3 -89 -8 -150 -11 -60 -3 -121 -7 -135 -10 -37
-6 -143 -15 -244 -20 -103 -6 -182 -12 -246 -20 -25 -4 -58 -8 -75 -10 -16 -2
-79 -7 -140 -10 -60 -3 -153 -10 -205 -15 -52 -6 -142 -13 -200 -16 -58 -3
-114 -6 -125 -8 -36 -6 -242 -22 -312 -25 l-43 -1 0 -1830 0 -1830 23 -1 c12
0 29 -2 38 -4 8 -1 69 -6 135 -10 65 -4 133 -8 149 -10 17 -1 57 -6 90 -9 33
-3 101 -8 150 -11 50 -3 110 -7 135 -10 25 -2 72 -7 105 -10 33 -3 74 -8 90
-10 17 -2 83 -7 148 -10 65 -4 128 -8 140 -10 32 -6 138 -14 247 -20 52 -3
113 -7 135 -10 109 -12 157 -16 239 -20 48 -2 111 -7 140 -10 28 -3 71 -7 96
-10 25 -2 70 -6 100 -9 30 -3 93 -8 140 -11 101 -6 192 -13 240 -20 19 -2 85
-7 145 -10 61 -3 126 -8 145 -10 32 -4 57 -6 188 -20 26 -3 92 -7 147 -10 55
-3 116 -8 135 -10 44 -6 131 -13 240 -20 81 -5 140 -10 240 -21 86 -9 136 -13
230 -19 110 -6 200 -14 250 -21 19 -2 78 -6 130 -9 52 -2 121 -7 153 -11 l57
-6 0 2201 0 2201 -33 0 c-19 0 -36 -2 -38 -4z"/>
</g>
</svg>
